# xmcd CD database file
#
# Track frame offsets:
#	150
#	15573
#	31626
#	57489
#	80448
#	99683
#	116592
#	134416
#	193165
#	205476
#	231774
#	255956
#	282750
#	300739
#	322900
#
# Disc length: 4631 seconds
#
# Revision: 0
# Processed by: cddbd v1.5.2PL0 Copyright (c) Steve Scherf et al.
# Submitted via: CDex 1.70beta2
#
DISCID=c812150f
DTITLE=Jaco Pastrius - The Early Years Recordings
DYEAR=1900
DGENRE=Jazz
TTITLE0=The Chicken
TTITLE1=I Just Want to Make Love to You
TTITLE2=Higher
TTITLE3=Ming of Mings
TTITLE4=Amelia
TTITLE5=Rice Pudding
TTITLE6=Do You Like the Sound of the Time
TTITLE7=Ballye de Nina
TTITLE8=Between Races
TTITLE9=Domingo
TTITLE10=Wiggle Waggle
TTITLE11=Opus Pocus
TTITLE12=Continuum
TTITLE13=THe Balloon Song
TTITLE14=All the Things You Are
EXTD=
EXTT0=
EXTT1=
EXTT2=
EXTT3=
EXTT4=
EXTT5=
EXTT6=
EXTT7=
EXTT8=
EXTT9=
EXTT10=
EXTT11=
EXTT12=
EXTT13=
EXTT14=
PLAYORDER=
